<mxfile host="app.diagrams.net" agent="Mozilla/5.0 (X11; Linux x86_64) AppleWebKit/537.36 (KHTML, like Gecko) Chrome/141.0.0.0 Safari/537.36" version="28.2.5">
  <diagram name="Page-1" id="z-HNuAr7jYcS1OZc1KLM">
    <mxGraphModel dx="1426" dy="1818" grid="1" gridSize="10" guides="1" tooltips="1" connect="1" arrows="1" fold="1" page="1" pageScale="1" pageWidth="850" pageHeight="1100" math="0" shadow="0">
      <root>
        <mxCell id="0" />
        <mxCell id="1" parent="0" />
        <mxCell id="EzyZMER-zt18EPcJDi-p-3" style="edgeStyle=orthogonalEdgeStyle;rounded=0;orthogonalLoop=1;jettySize=auto;html=1;" parent="1" source="EzyZMER-zt18EPcJDi-p-1" target="EzyZMER-zt18EPcJDi-p-2" edge="1">
          <mxGeometry relative="1" as="geometry" />
        </mxCell>
        <mxCell id="EzyZMER-zt18EPcJDi-p-9" value="http_archive" style="edgeLabel;html=1;align=center;verticalAlign=middle;resizable=0;points=[];" parent="EzyZMER-zt18EPcJDi-p-3" vertex="1" connectable="0">
          <mxGeometry x="0.0476" y="-2" relative="1" as="geometry">
            <mxPoint as="offset" />
          </mxGeometry>
        </mxCell>
        <mxCell id="EzyZMER-zt18EPcJDi-p-1" value="Qt 6.4" style="ellipse;whiteSpace=wrap;html=1;aspect=fixed;" parent="1" vertex="1">
          <mxGeometry x="200" y="360" width="80" height="80" as="geometry" />
        </mxCell>
        <mxCell id="EzyZMER-zt18EPcJDi-p-2" value="vertexwahn.de" style="ellipse;whiteSpace=wrap;html=1;aspect=fixed;" parent="1" vertex="1">
          <mxGeometry x="200" y="500" width="80" height="80" as="geometry" />
        </mxCell>
        <mxCell id="EzyZMER-zt18EPcJDi-p-6" value="main" style="edgeStyle=orthogonalEdgeStyle;rounded=0;orthogonalLoop=1;jettySize=auto;html=1;entryX=0.5;entryY=0;entryDx=0;entryDy=0;" parent="1" source="EzyZMER-zt18EPcJDi-p-5" target="EzyZMER-zt18EPcJDi-p-1" edge="1">
          <mxGeometry x="0.4116" relative="1" as="geometry">
            <mxPoint as="offset" />
          </mxGeometry>
        </mxCell>
        <mxCell id="EzyZMER-zt18EPcJDi-p-8" style="edgeStyle=orthogonalEdgeStyle;rounded=0;orthogonalLoop=1;jettySize=auto;html=1;dashed=1;fillColor=#f8cecc;strokeColor=#b85450;" parent="1" source="EzyZMER-zt18EPcJDi-p-5" target="EzyZMER-zt18EPcJDi-p-7" edge="1">
          <mxGeometry relative="1" as="geometry" />
        </mxCell>
        <mxCell id="EzyZMER-zt18EPcJDi-p-5" value="rules_qt" style="ellipse;whiteSpace=wrap;html=1;aspect=fixed;" parent="1" vertex="1">
          <mxGeometry x="320" y="230" width="80" height="80" as="geometry" />
        </mxCell>
        <mxCell id="EzyZMER-zt18EPcJDi-p-12" value="Use aqt" style="edgeStyle=orthogonalEdgeStyle;rounded=0;orthogonalLoop=1;jettySize=auto;html=1;dashed=1;exitX=0;exitY=0.5;exitDx=0;exitDy=0;fillColor=#f8cecc;strokeColor=#b85450;" parent="1" source="EzyZMER-zt18EPcJDi-p-7" target="EzyZMER-zt18EPcJDi-p-10" edge="1">
          <mxGeometry x="0.4284" relative="1" as="geometry">
            <mxPoint as="offset" />
          </mxGeometry>
        </mxCell>
        <mxCell id="EzyZMER-zt18EPcJDi-p-13" value="&lt;div style=&quot;text-align: start;&quot;&gt;&lt;span style=&quot;background-color: light-dark(#ffffff, var(--ge-dark-color, #121212)); color: light-dark(rgb(0, 0, 0), rgb(255, 255, 255));&quot;&gt;http_archive&lt;/span&gt;&lt;/div&gt;" style="edgeStyle=orthogonalEdgeStyle;rounded=0;orthogonalLoop=1;jettySize=auto;html=1;dashed=1;" parent="1" source="EzyZMER-zt18EPcJDi-p-7" target="EzyZMER-zt18EPcJDi-p-11" edge="1">
          <mxGeometry x="0.7143" y="-10" relative="1" as="geometry">
            <mxPoint as="offset" />
          </mxGeometry>
        </mxCell>
        <mxCell id="EzyZMER-zt18EPcJDi-p-7" value="Qt 6.10" style="ellipse;whiteSpace=wrap;html=1;aspect=fixed;" parent="1" vertex="1">
          <mxGeometry x="450" y="350" width="80" height="80" as="geometry" />
        </mxCell>
        <mxCell id="EzyZMER-zt18EPcJDi-p-10" value="aqt" style="ellipse;whiteSpace=wrap;html=1;aspect=fixed;" parent="1" vertex="1">
          <mxGeometry x="380" y="500" width="80" height="80" as="geometry" />
        </mxCell>
        <mxCell id="EzyZMER-zt18EPcJDi-p-11" value="download.qt.io" style="ellipse;whiteSpace=wrap;html=1;aspect=fixed;" parent="1" vertex="1">
          <mxGeometry x="540" y="500" width="80" height="80" as="geometry" />
        </mxCell>
      </root>
    </mxGraphModel>
  </diagram>
</mxfile>
